<?xml version="1.0" encoding="iso-8859-1"?>
<!-- Uploaded to: SVG Repo, www.svgrepo.com, Generator: SVG Repo Mixer Tools -->
<svg height="800px" width="800px" version="1.1" id="Layer_1" xmlns="http://www.w3.org/2000/svg" xmlns:xlink="http://www.w3.org/1999/xlink" 
	 viewBox="0 0 511.999 511.999" xml:space="preserve">
<g>
	<polyline style="fill:#CCA400;" points="46.325,154.932 46.325,121.293 71.465,121.293 71.465,154.932 	"/>
	<polyline style="fill:#CCA400;" points="440.535,154.932 440.535,121.293 465.675,121.293 465.675,154.932 	"/>
</g>
<g>
	<path style="fill:#FFCD00;" d="M58.895,49.141c21.956,0,39.754,17.799,39.754,39.754S80.851,128.65,58.895,128.65
		s-39.754-17.799-39.754-39.754c0-8.233,2.503-15.881,6.788-22.225C25.929,66.67,36.473,49.141,58.895,49.141z"/>
	<polygon style="fill:#FFCD00;" points="36.726,207.71 38.681,154.932 79.109,154.932 89.452,434.168 28.412,432.183 
		34.018,280.819 	"/>
</g>
<path style="fill:#CCA400;" d="M110.21,462.858H7.58v-19.663c0-7.747,6.28-14.027,14.027-14.027h74.576
	c7.747,0,14.027,6.28,14.027,14.027V462.858z"/>
<g>
	<path style="fill:#FFCD00;" d="M453.105,49.141c21.956,0,39.754,17.799,39.754,39.754s-17.799,39.754-39.754,39.754
		s-39.754-17.799-39.754-39.754c0-9.801,3.547-18.773,9.426-25.703C422.777,63.192,431.399,49.141,453.105,49.141z"/>
	<polygon style="fill:#FFCD00;" points="430.936,207.709 432.891,154.932 473.319,154.932 483.426,432.182 422.784,432.182 
		428.228,280.82 	"/>
</g>
<path style="fill:#CCA400;" d="M504.42,462.858H401.79v-19.663c0-7.747,6.28-14.027,14.027-14.027h74.576
	c7.747,0,14.027,6.28,14.027,14.027L504.42,462.858L504.42,462.858z"/>
<path d="M490.781,421.607l-9.887-266.955c-0.151-4.075-3.497-7.3-7.575-7.3h-0.064v-15.637c16.05-7.583,27.184-23.922,27.184-42.82
	c0-26.101-21.234-47.335-47.335-47.335c-4.186,0-7.58,3.394-7.58,7.58s3.394,7.58,7.58,7.58c17.741,0,32.174,14.433,32.174,32.174
	s-14.433,32.174-32.174,32.174s-32.174-14.433-32.174-32.174c0-7.616,2.709-15.003,7.627-20.8c2.709-3.193,2.316-7.977-0.876-10.684
	c-3.193-2.709-7.977-2.316-10.684,0.876c-7.24,8.533-11.226,19.404-11.226,30.608c0,12.201,4.642,23.337,12.25,31.739
	c-90.631,85.638-233.191,85.483-323.626-0.477c7.358-8.345,11.836-19.287,11.836-31.262c0-26.101-21.234-47.335-47.335-47.335
	c-4.186,0-7.58,3.394-7.58,7.58s3.394,7.58,7.58,7.58c17.741,0,32.174,14.433,32.174,32.174s-14.433,32.174-32.174,32.174
	s-32.174-14.433-32.174-32.174c0-6.447,1.898-12.666,5.489-17.983c2.344-3.47,1.431-8.182-2.039-10.525
	c-3.47-2.344-8.182-1.43-10.525,2.039c-5.291,7.833-8.087,16.985-8.087,26.468c0,18.897,11.135,35.236,27.184,42.82v15.637h-0.064
	c-4.077,0-7.425,3.225-7.575,7.3l-1.955,52.777c-0.155,4.184,3.111,7.702,7.294,7.856c4.217,0.144,7.702-3.112,7.855-7.294
	l1.685-45.479h25.819l9.546,257.731H36.44l5.154-139.144c0.155-4.183-3.111-7.701-7.294-7.855c-4.188-0.171-7.701,3.111-7.855,7.294
	l-5.225,141.069C9.486,421.817,0,431.412,0,443.194v19.663c0,4.186,3.394,7.58,7.58,7.58H110.21c4.186,0,7.58-3.394,7.58-7.58
	v-19.663c0-11.783-9.486-21.378-21.219-21.588l-9.887-266.955c-0.151-4.075-3.497-7.3-7.575-7.3h-0.064v-15.637
	c1.217-0.575,2.401-1.204,3.559-1.877c46.922,45.286,108.474,70.182,173.86,70.182c65.225,0,126.637-24.77,173.516-69.846
	c0.971,0.547,1.962,1.062,2.975,1.541v15.637h-0.064c-4.077,0-7.425,3.225-7.575,7.3l-1.955,52.776
	c-0.155,4.184,3.111,7.702,7.294,7.855c4.218,0.167,7.702-3.111,7.855-7.294l1.685-45.477h25.819l9.546,257.731h-44.911
	l5.154-139.143c0.155-4.183-3.111-7.701-7.294-7.855c-4.21-0.172-7.702,3.111-7.856,7.294l-5.224,141.068
	c-11.733,0.21-21.219,9.805-21.219,21.588v19.663c0,4.186,3.394,7.58,7.58,7.58h102.629c4.186,0,7.58-3.394,7.58-7.58v-19.663
	C512,431.412,502.516,421.817,490.781,421.607z M102.629,443.194v12.083H15.161v-12.083c0-3.555,2.892-6.446,6.446-6.446h74.576
	C99.738,436.748,102.629,439.64,102.629,443.194z M63.885,147.352h-9.98v-11.387c1.64,0.173,3.304,0.265,4.99,0.265
	c1.686,0,3.349-0.092,4.99-0.265V147.352z M448.115,135.966c1.64,0.173,3.304,0.265,4.99,0.265s3.349-0.092,4.99-0.265v11.386h-9.98
	L448.115,135.966L448.115,135.966z M496.839,455.278h-87.469v-12.083c0-3.555,2.892-6.446,6.446-6.446h74.576
	c3.555,0,6.446,2.892,6.446,6.446V455.278z"/>
</svg>